<?xml version="1.0" encoding="UTF-8"?>
<svg xmlns="http://www.w3.org/2000/svg" xmlns:xlink="http://www.w3.org/1999/xlink" width="40px" height="40px" viewBox="0 0 40 40" version="1.1">
<g id="surface1">
<path style=" stroke:none;fill-rule:nonzero;fill:rgb(1.176471%,74.117647%,83.921569%);fill-opacity:1;" d="M 20 0 C 12.34375 0 6.117188 6.226562 6.117188 13.882812 C 6.117188 21.25 18.714844 38.464844 19.25 39.191406 L 19.75 39.875 C 19.808594 39.953125 19.902344 40 20 40 C 20.097656 40 20.191406 39.953125 20.25 39.875 L 20.75 39.191406 C 21.289062 38.464844 33.882812 21.25 33.882812 13.882812 C 33.882812 6.226562 27.652344 0 20 0 Z M 20 8.910156 C 22.742188 8.910156 24.972656 11.140625 24.972656 13.882812 C 24.972656 16.621094 22.742188 18.855469 20 18.855469 C 17.257812 18.855469 15.027344 16.621094 15.027344 13.882812 C 15.027344 11.140625 17.257812 8.910156 20 8.910156 Z M 20 8.910156 "/>
</g>
</svg>
